# xmcd CD database file
#
# Track frame offsets:
#	150
#	13970
#	31257
#	49935
#	68335
#	86452
#	99622
#	114327
#	127797
#	143452
#	160705
#	182455
#	198467
#	214600
#	231145
#	247972
#	264095
#	280215
#	303887
#	323375
#
# Disc length: 4605 seconds
#
# Revision: 6
# Processed by: cddbd v1.5.2PL0 Copyright (c) Steve Scherf et al.
# Submitted via: CDex 1.51
#
DISCID=f311fb14
DTITLE=Chit„ozinho E XororÛ - Chit„ozinho E XororÛ
DYEAR=2003
DGENRE=Country
TTITLE0=Nascemos Pra Cantar
TTITLE1=Eu Menti
TTITLE2=Nuvem De L·Grimas
TTITLE3=Colcha De Retalho
TTITLE4=Brincar De Ser Feliz
TTITLE5=Saco De Ouro
TTITLE6=V· Pro Inferno Com Seu Amor
TTITLE7=Saudade Da Minha Terra
TTITLE8=Bail„O De Pe„O
TTITLE9=Ela N„O Vai Mais Chorar (She's Not Crying Anymore)
TTITLE10=Somos Assim
TTITLE11=Fio De Cabelo
TTITLE12=P·Gina De Amigos
TTITLE13=Vou Tom· Um Ping„O
TTITLE14=Guadalupe
TTITLE15=Saudade Dela
TTITLE16=CoraÁ„O Sertanejo
TTITLE17=Nossa Senhora
TTITLE18=Meu Senhor (My Sweet Lord)
TTITLE19=EvidÍNcias
EXTD=YEAR: 2003
EXTT0=
EXTT1=
EXTT2=
EXTT3=
EXTT4=
EXTT5=
EXTT6=
EXTT7=
EXTT8=
EXTT9=
EXTT10=
EXTT11=
EXTT12=
EXTT13=
EXTT14=
EXTT15=
EXTT16=
EXTT17=
EXTT18=
EXTT19=
PLAYORDER=
